<?xml version="1.0" encoding="UTF-8" standalone="no"?>
<!DOCTYPE svg PUBLIC "-//W3C//DTD SVG 1.0//EN" "http://www.w3.org/TR/2001/PR-SVG-20010719/DTD/svg10.dtd">
<svg width="41cm" height="17cm" viewBox="218 88 813 334" xmlns="http://www.w3.org/2000/svg" xmlns:xlink="http://www.w3.org/1999/xlink">
  <g>
    <rect style="fill: #ffffff" x="297" y="103" width="410.4" height="28"/>
    <rect style="fill: none; fill-opacity:0; stroke-width: 2; stroke: #000000" x="297" y="103" width="410.4" height="28"/>
    <text style="fill: #000000;text-anchor:middle;font-size:16;font-family:sanserif;font-style:normal;font-weight:700" x="502.2" y="122">semAndLogicFrontEnd</text>
    <rect style="fill: #ffffff" x="297" y="131" width="410.4" height="8"/>
    <rect style="fill: none; fill-opacity:0; stroke-width: 2; stroke: #000000" x="297" y="131" width="410.4" height="8"/>
    <rect style="fill: #ffffff" x="297" y="139" width="410.4" height="68"/>
    <rect style="fill: none; fill-opacity:0; stroke-width: 2; stroke: #000000" x="297" y="139" width="410.4" height="68"/>
    <text style="fill: #000000;text-anchor:start;font-size:12.8;font-family:monospace;font-style:normal;font-weight:normal" x="300" y="153">+&lt;&lt;virtual&gt;&gt; getEntryPointAbstraction(): 'a</text>
    <text style="fill: #000000;text-anchor:start;font-size:12.8;font-family:monospace;font-style:normal;font-weight:normal" x="300" y="169">+&lt;&lt;virtual&gt;&gt; getEntryPointPrecondition(): 'a</text>
    <text style="fill: #000000;text-anchor:start;font-size:12.8;font-family:monospace;font-style:normal;font-weight:normal" x="300" y="185">+&lt;&lt;virtual&gt;&gt; next('a,string,stmtkind): ('a * string)</text>
    <text style="fill: #000000;text-anchor:start;font-size:12.8;font-family:monospace;font-style:normal;font-weight:normal" x="300" y="201">+&lt;&lt;virtual&gt;&gt; pretty('a): string</text>
    <rect style="fill: #ffffff" x="661.4" y="89" width="54" height="20"/>
    <rect style="fill: none; fill-opacity:0; stroke-width: 2; stroke-dasharray: 6; stroke: #000000" x="661.4" y="89" width="54" height="20"/>
    <text style="fill: #000000;text-anchor:start;font-size:12.8;font-family:monospace;font-style:normal;font-weight:normal" x="667.4" y="103">'a:</text>
  </g>
  <g>
    <rect style="fill: #ffffff" x="857" y="364" width="173.7" height="28"/>
    <rect style="fill: none; fill-opacity:0; stroke-width: 2; stroke: #000000" x="857" y="364" width="173.7" height="28"/>
    <rect style="fill: #ffffff" x="857" y="346" width="30" height="18"/>
    <rect style="fill: none; fill-opacity:0; stroke-width: 2; stroke: #000000" x="857" y="346" width="30" height="18"/>
    <text style="fill: #000000;text-anchor:start;font-size:12.7998;font-family:monospace;font-style:normal;font-weight:normal" x="863" y="381.9">
      <tspan x="863" y="381.9">YOUR Logic &amp; Semantic</tspan>
    </text>
  </g>
  <g>
    <rect style="fill: #ffffff" x="219.9" y="316.6" width="564.4" height="28"/>
    <rect style="fill: none; fill-opacity:0; stroke-width: 2; stroke: #000000" x="219.9" y="316.6" width="564.4" height="28"/>
    <text style="fill: #000000;text-anchor:middle;font-size:16;font-family:sanserif;font-style:normal;font-weight:700" x="502.1" y="335.6">fooAbstraction</text>
    <rect style="fill: #ffffff" x="219.9" y="344.6" width="564.4" height="8"/>
    <rect style="fill: none; fill-opacity:0; stroke-width: 2; stroke: #000000" x="219.9" y="344.6" width="564.4" height="8"/>
    <rect style="fill: #ffffff" x="219.9" y="352.6" width="564.4" height="68"/>
    <rect style="fill: none; fill-opacity:0; stroke-width: 2; stroke: #000000" x="219.9" y="352.6" width="564.4" height="68"/>
    <text style="fill: #000000;text-anchor:start;font-size:12.8;font-family:monospace;font-style:normal;font-weight:normal" x="222.9" y="366.6">+getEntryPointAbstraction(): fooAbstractionType</text>
    <text style="fill: #000000;text-anchor:start;font-size:12.8;font-family:monospace;font-style:normal;font-weight:normal" x="222.9" y="382.6">+getEntryPointPrecondition(): fooAbstractionType</text>
    <text style="fill: #000000;text-anchor:start;font-size:12.8;font-family:monospace;font-style:normal;font-weight:normal" x="222.9" y="398.6">+next(fooAbstractionType,string,stmtkind): (fooAbstractionType * string)</text>
    <text style="fill: #000000;text-anchor:start;font-size:12.8;font-family:monospace;font-style:normal;font-weight:normal" x="222.9" y="414.6">+pretty(fooAbstractionType): string</text>
  </g>
  <g>
    <polyline style="fill: none; fill-opacity:0; stroke-width: 2; stroke: #000000" points="502.2,226.243 502.2,262.303 502.1,262.303 502.1,316.6 "/>
    <polygon style="fill: #ffffff" points="510.2,226.243 502.2,210.243 494.2,226.243 "/>
    <polygon style="fill: none; fill-opacity:0; stroke-width: 2; stroke: #000000" points="510.2,226.243 502.2,210.243 494.2,226.243 "/>
  </g>
  <g>
    <line style="fill: none; fill-opacity:0; stroke-width: 2; stroke: #000000" x1="784.3" y1="378.6" x2="847.264" y2="378.08"/>
    <polygon style="fill: #000000" points="854.764,378.018 844.806,383.101 847.264,378.08 844.723,373.101 "/>
    <polygon style="fill: none; fill-opacity:0; stroke-width: 2; stroke: #000000" points="854.764,378.018 844.806,383.101 847.264,378.08 844.723,373.101 "/>
  </g>
</svg>
